<svg width="16" height="16" viewBox="0 0 16 16" fill="none" xmlns="http://www.w3.org/2000/svg">
<path d="M8 2.3255L8.981 3.97531L9.42144 4.715L10.25 4.48381L12.0056 3.99444L11.5162 5.75L11.285 6.57856L12.0247 7.01844L13.6745 8L12.0247 8.981L11.285 9.42087L11.5162 10.25L12.0056 12.0056L10.2506 11.5162L9.42144 11.285L8.981 12.0247L8 13.6745L7.019 12.0247L6.57856 11.285L5.75 11.5162L3.995 12.0056L4.48325 10.25L4.71387 9.42087L3.97475 8.981L2.3255 8L3.97531 7.01844L4.715 6.57856L4.48381 5.75L3.99444 3.995L5.75 4.48325L6.57912 4.71387L7.019 3.97475L8 2.3255ZM8 0.125L6.05206 3.39987L2.375 2.375L3.39987 6.05206L0.125 8L3.39987 9.94794L2.375 13.625L6.05206 12.6001L8 15.875L9.94794 12.6001L13.625 13.625L12.6001 9.94794L15.875 8L12.6001 6.05206L13.625 2.375L9.94794 3.39987L8 0.125Z" fill="#033323"/>
</svg>
