<svg width="12" height="12" viewBox="0 0 12 12" fill="none" xmlns="http://www.w3.org/2000/svg">
<path d="M9.24921 5.17178L6.31581 0.590011C6.28189 0.537028 6.23519 0.49343 6.18 0.463232C6.12481 0.433034 6.06291 0.417206 5.99999 0.417206C5.93708 0.417206 5.87518 0.433034 5.81999 0.463232C5.7648 0.49343 5.71809 0.537028 5.68417 0.590011L2.75071 5.17183C2.24215 5.86172 1.96883 6.69682 1.97108 7.5539C1.97108 9.77542 3.77842 11.5828 5.99999 11.5828C8.22157 11.5828 10.0289 9.77547 10.0289 7.5539C10.0312 6.69679 9.75782 5.86167 9.24921 5.17178ZM5.99999 10.8328C4.19202 10.8328 2.72108 9.36191 2.72108 7.5539C2.71917 6.85296 2.94377 6.17016 3.36142 5.60723C3.36641 5.60048 3.37116 5.59357 3.37567 5.58651L5.99999 1.48769L8.62422 5.58653C8.62872 5.59361 8.63347 5.60052 8.63847 5.60725C9.05616 6.17016 9.2808 6.85295 9.2789 7.5539C9.2789 9.36189 7.80796 10.8328 5.99999 10.8328Z" fill="#585858"/>
</svg>
