<svg width="12" height="16" viewBox="0 0 12 16" fill="none" xmlns="http://www.w3.org/2000/svg">
<path d="M10.3322 6.89571L6.42104 0.786682C6.37581 0.716037 6.31354 0.657907 6.23995 0.617642C6.16636 0.577378 6.08383 0.556274 5.99994 0.556274C5.91606 0.556274 5.83353 0.577378 5.75994 0.617642C5.68635 0.657907 5.62408 0.716037 5.57885 0.786682L1.66757 6.89578C0.989492 7.81563 0.625066 8.9291 0.62807 10.0719C0.62807 13.0339 3.03785 15.4437 5.99994 15.4437C8.96204 15.4437 11.3718 13.034 11.3718 10.0719C11.3748 8.92906 11.0104 7.81556 10.3322 6.89571V6.89571ZM5.99994 14.4437C3.58932 14.4437 1.62807 12.4826 1.62807 10.0719C1.62551 9.13728 1.92498 8.22688 2.48185 7.47631C2.4885 7.46731 2.49483 7.4581 2.50085 7.44868L5.99994 1.98359L9.49891 7.44871C9.50491 7.45815 9.51125 7.46736 9.51791 7.47634C10.0748 8.22688 10.3743 9.13728 10.3718 10.0719C10.3718 12.4825 8.41057 14.4437 5.99994 14.4437V14.4437Z" fill="#033323"/>
</svg>
