<svg width="18" height="14" viewBox="0 0 18 14" fill="none" xmlns="http://www.w3.org/2000/svg">
<path d="M4.625 11.375C4.62565 11.9612 4.83224 12.5284 5.20867 12.9777C5.5851 13.4271 6.10744 13.7298 6.68442 13.8331C7.2614 13.9364 7.85633 13.8337 8.36527 13.5429C8.8742 13.2521 9.26478 12.7917 9.46875 12.2422C9.50226 12.1642 9.51951 12.0801 9.51946 11.9952C9.5194 11.9103 9.50204 11.8262 9.46843 11.7482C9.43483 11.6703 9.38567 11.5999 9.32398 11.5416C9.26229 11.4832 9.18935 11.438 9.10962 11.4088C9.02988 11.3796 8.94503 11.3669 8.86023 11.3715C8.77543 11.3762 8.69247 11.3981 8.61641 11.4358C8.54036 11.4736 8.47279 11.5265 8.41786 11.5913C8.36292 11.656 8.32175 11.7313 8.29688 11.8125C8.21701 12.0263 8.08016 12.2141 7.90116 12.3556C7.72216 12.4971 7.50783 12.5869 7.28142 12.6153C7.05501 12.6437 6.82515 12.6095 6.61675 12.5166C6.40836 12.4236 6.22938 12.2754 6.09923 12.088C5.96907 11.9006 5.8927 11.6811 5.8784 11.4534C5.86409 11.2256 5.9124 10.9983 6.01808 10.7961C6.12376 10.5938 6.28278 10.4244 6.47791 10.3061C6.67303 10.1878 6.89682 10.1252 7.125 10.125H15.875C16.0408 10.125 16.1997 10.0592 16.3169 9.94194C16.4342 9.82473 16.5 9.66576 16.5 9.5C16.5 9.33424 16.4342 9.17527 16.3169 9.05806C16.1997 8.94085 16.0408 8.875 15.875 8.875H7.125C6.46259 8.87706 5.8279 9.14112 5.35951 9.60951C4.89111 10.0779 4.62706 10.7126 4.625 11.375ZM9.625 5.125C9.16815 5.12519 8.71999 5.00019 8.32919 4.76359C7.93839 4.52698 7.61989 4.18781 7.4083 3.78292C7.1967 3.37803 7.10009 2.9229 7.12897 2.46697C7.15785 2.01104 7.31111 1.57174 7.5721 1.19678C7.83309 0.821826 8.19183 0.525553 8.60936 0.340145C9.02689 0.154737 9.48725 0.087283 9.94042 0.145109C10.3936 0.202936 10.8222 0.383832 11.1798 0.668149C11.5374 0.952466 11.8103 1.32933 11.9688 1.75781C12.0023 1.83585 12.0195 1.91989 12.0195 2.00482C12.0194 2.08974 12.002 2.17377 11.9684 2.25176C11.9348 2.32975 11.8857 2.40007 11.824 2.45844C11.7623 2.5168 11.6894 2.56198 11.6096 2.59122C11.5299 2.62045 11.445 2.63313 11.3602 2.62848C11.2754 2.62383 11.1925 2.60195 11.1164 2.56417C11.0404 2.52638 10.9728 2.4735 10.9179 2.40874C10.8629 2.34398 10.8218 2.2687 10.7969 2.1875C10.717 1.97375 10.5802 1.78594 10.4012 1.64442C10.2222 1.50291 10.0078 1.41309 9.78142 1.38471C9.55501 1.35633 9.32514 1.39046 9.11675 1.48341C8.90836 1.57636 8.72938 1.72458 8.59923 1.91201C8.46907 2.09943 8.3927 2.31891 8.3784 2.54664C8.36409 2.77438 8.4124 3.00168 8.51808 3.20392C8.62376 3.40616 8.78278 3.57561 8.97791 3.6939C9.17303 3.8122 9.39682 3.87483 9.625 3.875H17.125C17.2908 3.875 17.4497 3.94085 17.5669 4.05806C17.6842 4.17527 17.75 4.33424 17.75 4.5C17.75 4.66576 17.6842 4.82473 17.5669 4.94194C17.4497 5.05915 17.2908 5.125 17.125 5.125H9.625ZM2.75 2.625C3.26041 2.62632 3.75826 2.78334 4.17706 3.07511C4.59586 3.36687 4.91566 3.77948 5.09375 4.25781C5.12726 4.33585 5.14451 4.41989 5.14446 4.50482C5.1444 4.58974 5.12704 4.67377 5.09343 4.75176C5.05983 4.82975 5.01068 4.90007 4.94898 4.95844C4.88729 5.0168 4.81435 5.06198 4.73462 5.09122C4.65488 5.12045 4.57003 5.13313 4.48523 5.12848C4.40043 5.12383 4.31747 5.10195 4.24141 5.06417C4.16536 5.02638 4.09779 4.9735 4.04286 4.90874C3.98792 4.84398 3.94675 4.7687 3.92188 4.6875C3.84201 4.47375 3.70516 4.28594 3.52616 4.14442C3.34716 4.00291 3.13283 3.91309 2.90642 3.88471C2.68001 3.85633 2.45015 3.89046 2.24175 3.98341C2.03336 4.07636 1.85438 4.22458 1.72423 4.41201C1.59407 4.59943 1.5177 4.81891 1.5034 5.04664C1.48909 5.27438 1.5374 5.50168 1.64308 5.70392C1.74876 5.90616 1.90778 6.07561 2.10291 6.1939C2.29803 6.3122 2.52182 6.37483 2.75 6.375H16.5C16.6658 6.375 16.8247 6.44085 16.9419 6.55806C17.0592 6.67527 17.125 6.83424 17.125 7C17.125 7.16576 17.0592 7.32473 16.9419 7.44194C16.8247 7.55915 16.6658 7.625 16.5 7.625H2.75C2.08696 7.625 1.45107 7.36161 0.982233 6.89277C0.513393 6.42393 0.25 5.78804 0.25 5.125C0.25 4.46196 0.513393 3.82607 0.982233 3.35723C1.45107 2.88839 2.08696 2.625 2.75 2.625Z" fill="#033323"/>
</svg>
