<svg width="14" height="18" viewBox="0 0 14 18" fill="none" xmlns="http://www.w3.org/2000/svg">
<path d="M7.94073 9L13.0407 4.46688C13.1354 4.38263 13.2022 4.2716 13.2323 4.14851C13.2624 4.02542 13.2544 3.89609 13.2093 3.77766C13.1643 3.65923 13.0842 3.5573 12.9799 3.48539C12.8756 3.41347 12.7518 3.37498 12.6251 3.375H10.7501V0.25H9.50011V4.625H10.9814L7.00011 8.16375L3.01886 4.625H4.50011V0.25H3.25011V3.375H1.37511C1.24839 3.37498 1.12466 3.41347 1.02032 3.48539C0.915982 3.5573 0.835968 3.65923 0.790887 3.77766C0.745807 3.89609 0.73779 4.02542 0.767901 4.14851C0.798011 4.2716 0.864826 4.38263 0.959485 4.46688L6.05949 9L0.959485 13.5331C0.864826 13.6174 0.798011 13.7284 0.767901 13.8515C0.73779 13.9746 0.745807 14.1039 0.790887 14.2223C0.835968 14.3408 0.915982 14.4427 1.02032 14.5146C1.12466 14.5865 1.24839 14.625 1.37511 14.625H3.25011V17.75H4.50011V13.375H3.01886L7.00011 9.83625L10.9814 13.375H9.50011V17.75H10.7501V14.625H12.6251C12.7518 14.6249 12.8754 14.5863 12.9797 14.5143C13.0839 14.4424 13.1638 14.3405 13.2088 14.2221C13.2538 14.1037 13.2618 13.9744 13.2317 13.8513C13.2015 13.7283 13.1347 13.6173 13.0401 13.5331L7.94073 9Z" fill="#033323"/>
</svg>
