<svg width="8" height="16" viewBox="0 0 8 16" fill="none" xmlns="http://www.w3.org/2000/svg">
<path d="M4 4.5C4.13261 4.5 4.25979 4.55268 4.35356 4.64645C4.44732 4.74021 4.5 4.86739 4.5 5V10.063C4.97133 10.1847 5.3821 10.4741 5.6553 10.877C5.92851 11.2799 6.0454 11.7686 5.98406 12.2515C5.92272 12.7344 5.68737 13.1784 5.32212 13.5002C4.95687 13.822 4.48679 13.9995 4 13.9995C3.51322 13.9995 3.04314 13.822 2.67789 13.5002C2.31263 13.1784 2.07728 12.7344 2.01594 12.2515C1.95461 11.7686 2.0715 11.2799 2.3447 10.877C2.61791 10.4741 3.02867 10.1847 3.5 10.063V5C3.5 4.86739 3.55268 4.74021 3.64645 4.64645C3.74022 4.55268 3.86739 4.5 4 4.5ZM4 0C3.20435 0 2.44129 0.316071 1.87868 0.87868C1.31607 1.44129 1 2.20435 1 3V9.354C0.490834 9.93134 0.159074 10.6433 0.0445313 11.4046C-0.0700111 12.1658 0.0375302 12.9439 0.354251 13.6455C0.670972 14.3471 1.18342 14.9424 1.8301 15.36C2.47677 15.7776 3.23021 15.9998 4 15.9998C4.76979 15.9998 5.52323 15.7776 6.16991 15.36C6.81659 14.9424 7.32903 14.3471 7.64575 13.6455C7.96247 12.9439 8.07002 12.1658 7.95547 11.4046C7.84093 10.6433 7.50917 9.93134 7 9.354V3C7 2.20435 6.68393 1.44129 6.12132 0.87868C5.55871 0.316071 4.79565 0 4 0ZM4 1C4.53044 1 5.03914 1.21071 5.41422 1.58579C5.78929 1.96086 6 2.46957 6 3V9.755L6.143 9.9C6.55639 10.322 6.836 10.8566 6.94678 11.4368C7.05756 12.0171 6.99457 12.6171 6.76571 13.1617C6.53685 13.7063 6.15231 14.1712 5.6603 14.4981C5.1683 14.825 4.59072 14.9994 4 14.9994C3.40928 14.9994 2.83171 14.825 2.3397 14.4981C1.8477 14.1712 1.46316 13.7063 1.2343 13.1617C1.00544 12.6171 0.942448 12.0171 1.05322 11.4368C1.164 10.8566 1.44361 10.322 1.857 9.9L2 9.755V3C2 2.46957 2.21072 1.96086 2.58579 1.58579C2.96086 1.21071 3.46957 1 4 1Z" fill="#033323"/>
</svg>
